<?xml version="1.0" encoding="utf-8"?>
<!-- Generator: Adobe Illustrator 25.4.1, SVG Export Plug-In . SVG Version: 6.00 Build 0)  -->
<svg version="1.1" id="레이어_2_00000120537910117276966100000003089783459401323431_"
	 xmlns="http://www.w3.org/2000/svg" xmlns:xlink="http://www.w3.org/1999/xlink" x="0px" y="0px" viewBox="0 0 100 100"
	 style="enable-background:new 0 0 100 100;" xml:space="preserve">
<style type="text/css">
	.st0{display:none;}
	.st1{display:inline;fill:#FFEA0F;}
	.st2{display:inline;}
	.st3{fill:#3C1E1E;}
	.st4{display:inline;fill:#262626;}
	.st5{fill:#FFFFFF;}
	.st6{clip-path:url(#SVGID_00000166668836218454039910000007830125178465350291_);fill:#3E82F1;}
	.st7{clip-path:url(#SVGID_00000113337809752381258880000003567027574226781601_);fill:#32A753;}
	.st8{clip-path:url(#SVGID_00000034784575166515645910000012103344436035688633_);fill:#F9BB00;}
	.st9{clip-path:url(#SVGID_00000016036304586900864330000006757172502230812562_);fill:#E74133;}
	.st10{display:none;fill:#06BE34;}
</style>
<g class="st0">
	<circle class="st1" cx="50" cy="50" r="46.3"/>
	<g class="st2">
		<path class="st3" d="M50,27.7c-13.3,0-24.1,8.5-24.1,19c0,6.8,4.4,12.7,11.2,16.1l-2.3,8.5c-0.1,0.3,0,0.6,0.2,0.8
			c0.1,0.1,0.3,0.2,0.5,0.2c0.2,0,0.3-0.1,0.4-0.2l9.7-6.6c1.4,0.2,2.9,0.3,4.3,0.3c13.3,0,24.1-8.5,24.1-19
			C74.1,36.3,63.3,27.7,50,27.7z"/>
	</g>
</g>
<g class="st0">
	<path class="st4" d="M46,3.8c2.6,0,5.2,0,7.7,0c0.2,0,0.4,0.1,0.6,0.1c4.7,0.4,9.2,1.5,13.5,3.4c18,7.6,30.1,26.2,28.2,47
		c-0.7,7.2-2.8,13.9-6.6,20C79.2,90.7,60.8,99.1,41.7,95.4c-18.6-3.6-30.6-15-36.4-33.1c-0.9-2.7-1.2-5.6-1.6-8.4c0-2.6,0-5.3,0-7.9
		c0.2-1.4,0.4-2.9,0.7-4.3C8.4,23,19.6,10.9,37.8,5.3C40.5,4.4,43.3,4.1,46,3.8z M50,69.6c7.5,0,14.9,0,22.4,0
		c1.9,0,2.3-0.5,2.3-2.3c0-11.6,0-23.1,0-34.8c0-1.9-0.5-2.3-2.3-2.3c-14.9,0-29.9,0-44.8,0c-1.9,0-2.3,0.5-2.3,2.3
		c0,11.5,0,23.1,0,34.7c0,2,0.4,2.4,2.4,2.4C35.2,69.6,42.5,69.6,50,69.6z"/>
	<path class="st4" d="M50,66.6c-6.7,0-13.4,0-20.1,0c-1.4,0-1.4,0-1.4-1.4c0-9.5,0-19.1,0-28.6c0-0.1,0-0.1,0-0.2
		c0-0.3-0.1-0.7,0.2-0.9c0.4-0.2,0.6,0.2,0.9,0.5c6.1,5.3,12.3,10.5,18.4,15.8c0.1,0.1,0.3,0.3,0.4,0.4c1.5,1.3,1.9,1.3,3.5,0
		c6.2-5.3,12.4-10.7,18.6-16c0.3-0.3,0.6-0.8,1-0.6c0.4,0.2,0.2,0.8,0.2,1.1c0,9.4,0,19,0,28.4c0,1.5,0,1.5-1.5,1.5
		C63.3,66.6,56.7,66.6,50,66.6z"/>
	<path class="st4" d="M50,33.3c5.7,0,11.4,0,17.1,0c0.5,0,1-0.2,1.2,0.2c0.2,0.4-0.5,0.7-0.8,0.9c-5.5,4.8-11.1,9.5-16.6,14.4
		c-0.7,0.6-1.1,0.7-1.8,0.1c-5.7-4.9-11.3-9.7-17-14.5c-0.2-0.2-0.7-0.4-0.6-0.8c0.1-0.4,0.6-0.2,0.9-0.2
		C38.4,33.3,44.1,33.3,50,33.3z"/>
</g>
<path class="st5" d="M50,3.7L50,3.7C24.4,3.7,3.7,24.4,3.7,50v0c0,25.6,20.7,46.3,46.3,46.3h0c25.6,0,46.3-20.7,46.3-46.3v0
	C96.3,24.4,75.6,3.7,50,3.7z"/>
<g>
	<g>
		<defs>
			<path id="SVGID_1_" d="M90.1,50.9c0-2.9-0.3-5.7-0.7-8.4H50.8v15.8h22c-0.9,5.1-3.8,9.4-8.2,12.3V81h13.2
				C85.6,73.9,90.1,63.4,90.1,50.9L90.1,50.9L90.1,50.9z M90.1,50.9"/>
		</defs>
		<clipPath id="SVGID_00000040545460134522821780000000172438325759671732_">
			<use xlink:href="#SVGID_1_"  style="overflow:visible;"/>
		</clipPath>
		
			<rect id="XMLID_10_" x="28.1" y="19.8" style="clip-path:url(#SVGID_00000040545460134522821780000000172438325759671732_);fill:#3E82F1;" width="84.7" height="83.8"/>
	</g>
	<g>
		<defs>
			<path id="SVGID_00000013882747867823703900000003039710526437180846_" d="M50.8,90.9c11,0,20.3-3.7,27.1-9.9L64.7,70.7
				c-3.7,2.5-8.3,3.9-13.8,3.9c-10.6,0-19.7-7.2-22.9-16.9H14.3v10.6C21,81.7,34.8,90.9,50.8,90.9L50.8,90.9L50.8,90.9z M50.8,90.9"
				/>
		</defs>
		<clipPath id="SVGID_00000175324202337580411710000016105672356455871885_">
			<use xlink:href="#SVGID_00000013882747867823703900000003039710526437180846_"  style="overflow:visible;"/>
		</clipPath>
		
			<rect id="XMLID_7_" x="-8.4" y="35.1" style="clip-path:url(#SVGID_00000175324202337580411710000016105672356455871885_);fill:#32A753;" width="109" height="78.6"/>
	</g>
	<g>
		<defs>
			<path id="SVGID_00000146479742658508475300000018085158679524080783_" d="M27.9,57.8c-0.8-2.5-1.3-5.1-1.3-7.8
				c0-2.7,0.5-5.3,1.3-7.8V31.6H14.3C11.5,37.2,9.9,43.4,9.9,50s1.6,12.8,4.3,18.4L27.9,57.8L27.9,57.8L27.9,57.8z M27.9,57.8"/>
		</defs>
		<clipPath id="SVGID_00000095321106786499097770000015962602819000507790_">
			<use xlink:href="#SVGID_00000146479742658508475300000018085158679524080783_"  style="overflow:visible;"/>
		</clipPath>
		
			<rect id="XMLID_4_" x="-12.8" y="8.9" style="clip-path:url(#SVGID_00000095321106786499097770000015962602819000507790_);fill:#F9BB00;" width="63.4" height="82.2"/>
	</g>
	<g>
		<defs>
			<path id="SVGID_00000027562095212253798510000002744577583639280319_" d="M50.8,25.4c6,0,11.4,2.1,15.6,6.1l11.7-11.7
				C71.1,13.2,61.8,9.1,50.8,9.1c-16,0-29.8,9.2-36.5,22.5l13.7,10.6C31.2,32.6,40.2,25.4,50.8,25.4L50.8,25.4L50.8,25.4z
				 M50.8,25.4"/>
		</defs>
		<clipPath id="SVGID_00000113343294044287340940000018439857331671756164_">
			<use xlink:href="#SVGID_00000027562095212253798510000002744577583639280319_"  style="overflow:visible;"/>
		</clipPath>
		
			<rect id="XMLID_1_" x="-8.4" y="-13.6" style="clip-path:url(#SVGID_00000113343294044287340940000018439857331671756164_);fill:#E74133;" width="109.3" height="78.6"/>
	</g>
</g>
<path class="st10" d="M50,3.7L50,3.7C24.4,3.7,3.7,24.4,3.7,50v0c0,25.6,20.7,46.3,46.3,46.3h0c25.6,0,46.3-20.7,46.3-46.3v0
	C96.3,24.4,75.6,3.7,50,3.7z M73,71.1H57.6L42.4,49.9v21.3H27V28.9h15.4L57.6,51V28.9H73V71.1z"/>
</svg>
