<?xml version="1.0" encoding="utf-8"?>
<!-- Generator: Adobe Illustrator 25.4.1, SVG Export Plug-In . SVG Version: 6.00 Build 0)  -->
<svg version="1.1" id="레이어_2_00000120537910117276966100000003089783459401323431_"
	 xmlns="http://www.w3.org/2000/svg" xmlns:xlink="http://www.w3.org/1999/xlink" x="0px" y="0px" viewBox="0 0 100 100"
	 style="enable-background:new 0 0 100 100;" xml:space="preserve">
<style type="text/css">
	.st0{fill:#FFEA0F;}
	.st1{fill:#3C1E1E;}
	.st2{display:none;}
	.st3{display:inline;fill:#262626;}
	.st4{display:inline;}
	.st5{clip-path:url(#SVGID_00000108994221498608841270000002625965206775685554_);fill:#3E82F1;}
	.st6{clip-path:url(#SVGID_00000056401684770481013270000016032730544598279334_);fill:#32A753;}
	.st7{clip-path:url(#SVGID_00000140727720759764517890000013205503131549671556_);fill:#F9BB00;}
	.st8{clip-path:url(#SVGID_00000027570264582779565520000018433156810936321160_);fill:#E74133;}
	.st9{display:none;fill:#06BE34;}
</style>
<g>
	<circle class="st0" cx="50" cy="50" r="46.3"/>
	<g>
		<path class="st1" d="M50,27.7c-13.3,0-24.1,8.5-24.1,19c0,6.8,4.4,12.7,11.2,16.1l-2.3,8.5c-0.1,0.3,0,0.6,0.2,0.8
			c0.1,0.1,0.3,0.2,0.5,0.2c0.2,0,0.3-0.1,0.4-0.2l9.7-6.6c1.4,0.2,2.9,0.3,4.3,0.3c13.3,0,24.1-8.5,24.1-19
			C74.1,36.3,63.3,27.7,50,27.7z"/>
	</g>
</g>
<g class="st2">
	<path class="st3" d="M46,3.8c2.6,0,5.2,0,7.7,0c0.2,0,0.4,0.1,0.6,0.1c4.7,0.4,9.2,1.5,13.5,3.4c18,7.6,30.1,26.2,28.2,47
		c-0.7,7.2-2.8,13.9-6.6,20C79.2,90.7,60.8,99.1,41.7,95.4c-18.6-3.6-30.6-15-36.4-33.1c-0.9-2.7-1.2-5.6-1.6-8.4c0-2.6,0-5.3,0-7.9
		c0.2-1.4,0.4-2.9,0.7-4.3C8.4,23,19.6,10.9,37.8,5.3C40.5,4.4,43.3,4.1,46,3.8z M50,69.6c7.5,0,14.9,0,22.4,0
		c1.9,0,2.3-0.5,2.3-2.3c0-11.6,0-23.1,0-34.8c0-1.9-0.5-2.3-2.3-2.3c-14.9,0-29.9,0-44.8,0c-1.9,0-2.3,0.5-2.3,2.3
		c0,11.5,0,23.1,0,34.7c0,2,0.4,2.4,2.4,2.4C35.2,69.6,42.5,69.6,50,69.6z"/>
	<path class="st3" d="M50,66.6c-6.7,0-13.4,0-20.1,0c-1.4,0-1.4,0-1.4-1.4c0-9.5,0-19.1,0-28.6c0-0.1,0-0.1,0-0.2
		c0-0.3-0.1-0.7,0.2-0.9c0.4-0.2,0.6,0.2,0.9,0.5c6.1,5.3,12.3,10.5,18.4,15.8c0.1,0.1,0.3,0.3,0.4,0.4c1.5,1.3,1.9,1.3,3.5,0
		c6.2-5.3,12.4-10.7,18.6-16c0.3-0.3,0.6-0.8,1-0.6c0.4,0.2,0.2,0.8,0.2,1.1c0,9.4,0,19,0,28.4c0,1.5,0,1.5-1.5,1.5
		C63.3,66.6,56.7,66.6,50,66.6z"/>
	<path class="st3" d="M50,33.3c5.7,0,11.4,0,17.1,0c0.5,0,1-0.2,1.2,0.2c0.2,0.4-0.5,0.7-0.8,0.9c-5.5,4.8-11.1,9.5-16.6,14.4
		c-0.7,0.6-1.1,0.7-1.8,0.1c-5.7-4.9-11.3-9.7-17-14.5c-0.2-0.2-0.7-0.4-0.6-0.8c0.1-0.4,0.6-0.2,0.9-0.2
		C38.4,33.3,44.1,33.3,50,33.3z"/>
</g>
<g class="st2">
	<g class="st4">
		<defs>
			<path id="SVGID_1_" d="M96.3,51.1c0-3.3-0.3-6.6-0.9-9.7H50.9v18.3h25.4c-1.1,5.9-4.4,10.9-9.4,14.3v11.9h15.3
				C91.1,77.6,96.3,65.5,96.3,51.1L96.3,51.1L96.3,51.1z M96.3,51.1"/>
		</defs>
		<clipPath id="SVGID_00000146466816809244265570000008376893453135613834_">
			<use xlink:href="#SVGID_1_"  style="overflow:visible;"/>
		</clipPath>
		
			<rect id="XMLID_10_" x="24.7" y="15.2" style="clip-path:url(#SVGID_00000146466816809244265570000008376893453135613834_);fill:#3E82F1;" width="97.8" height="96.9"/>
	</g>
	<g class="st4">
		<defs>
			<path id="SVGID_00000020395057851576884660000011127194362402413724_" d="M50.9,97.2c12.8,0,23.4-4.2,31.3-11.4L66.9,73.9
				c-4.2,2.8-9.6,4.5-16,4.5c-12.3,0-22.7-8.3-26.4-19.5H8.7v12.2C16.5,86.7,32.5,97.2,50.9,97.2L50.9,97.2L50.9,97.2z M50.9,97.2"
				/>
		</defs>
		<clipPath id="SVGID_00000102515325406820945990000015037210894125380514_">
			<use xlink:href="#SVGID_00000020395057851576884660000011127194362402413724_"  style="overflow:visible;"/>
		</clipPath>
		
			<rect id="XMLID_7_" x="-17.5" y="32.7" style="clip-path:url(#SVGID_00000102515325406820945990000015037210894125380514_);fill:#32A753;" width="126" height="90.7"/>
	</g>
	<g class="st4">
		<defs>
			<path id="SVGID_00000177459642162155050660000015896374292382414762_" d="M24.5,59c-0.9-2.8-1.5-5.9-1.5-9c0-3.1,0.5-6.1,1.5-9
				V28.8H8.7c-3.2,6.4-5,13.6-5,21.2s1.8,14.8,5,21.2L24.5,59L24.5,59L24.5,59z M24.5,59"/>
		</defs>
		<clipPath id="SVGID_00000093896739714875953660000007280798651026592441_">
			<use xlink:href="#SVGID_00000177459642162155050660000015896374292382414762_"  style="overflow:visible;"/>
		</clipPath>
		
			<rect id="XMLID_4_" x="-22.5" y="2.5" style="clip-path:url(#SVGID_00000093896739714875953660000007280798651026592441_);fill:#F9BB00;" width="73.3" height="94.9"/>
	</g>
	<g class="st4">
		<defs>
			<path id="SVGID_00000117662959508442675390000017806033481314933171_" d="M50.9,21.5c6.9,0,13.2,2.4,18.1,7.1l13.5-13.5
				C74.4,7.4,63.7,2.8,50.9,2.8c-18.5,0-34.4,10.6-42.2,26L24.5,41C28.2,29.9,38.6,21.5,50.9,21.5L50.9,21.5L50.9,21.5z M50.9,21.5"
				/>
		</defs>
		<clipPath id="SVGID_00000077311999654835367200000014617673323863238589_">
			<use xlink:href="#SVGID_00000117662959508442675390000017806033481314933171_"  style="overflow:visible;"/>
		</clipPath>
		
			<rect id="XMLID_1_" x="-17.5" y="-23.5" style="clip-path:url(#SVGID_00000077311999654835367200000014617673323863238589_);fill:#E74133;" width="126.3" height="90.7"/>
	</g>
</g>
<path class="st9" d="M50,3.7L50,3.7C24.4,3.7,3.7,24.4,3.7,50v0c0,25.6,20.7,46.3,46.3,46.3h0c25.6,0,46.3-20.7,46.3-46.3v0
	C96.3,24.4,75.6,3.7,50,3.7z M73,71.1H57.6L42.4,49.9v21.3H27V28.9h15.4L57.6,51V28.9H73V71.1z"/>
</svg>
