<svg xmlns="http://www.w3.org/2000/svg" viewBox="0 0 29.4 23.89" fill="currentcolor"><g transform="translate(0 -0.001)"><path d="M29.4,2.83c-1.1,.49-2.27,.81-3.46,.95,1.26-.75,2.2-1.94,2.65-3.34-1.18,.7-2.48,1.19-3.83,1.46-2.29-2.43-6.11-2.54-8.54-.26-1.56,1.47-2.23,3.66-1.74,5.76-4.85-.24-9.37-2.53-12.43-6.3C.44,3.86,1.26,7.38,3.91,9.16c-.96-.03-1.89-.29-2.73-.76v.08c0,2.87,2.02,5.34,4.84,5.91-.52,.14-1.05,.21-1.59,.21-.38,0-.76-.03-1.13-.1,.79,2.46,3.05,4.14,5.63,4.19-2.14,1.68-4.77,2.59-7.49,2.58-.48,0-.96-.03-1.44-.09,2.76,1.77,5.97,2.71,9.25,2.71,11.09,0,17.16-9.19,17.16-17.16,0-.26,0-.52-.02-.78,1.18-.85,2.2-1.91,3.01-3.12"/></g></svg>