<svg xmlns="http://www.w3.org/2000/svg" xmlns:xlink="http://www.w3.org/1999/xlink" width="40" zoomAndPan="magnify" viewBox="0 0 30 45.749998" height="61" preserveAspectRatio="xMidYMid meet" version="1.0"><defs><g/><clipPath id="bed344be5b"><path d="M 0.0820312 0 L 29.917969 0 L 29.917969 45.5 L 0.0820312 45.5 Z M 0.0820312 0 " clip-rule="nonzero"/></clipPath><clipPath id="a8c62357f2"><path d="M 7.042969 6.761719 L 22.707031 6.761719 L 22.707031 22.425781 L 7.042969 22.425781 Z M 7.042969 6.761719 " clip-rule="nonzero"/></clipPath></defs><g clip-path="url(#bed344be5b)"><path fill="#c680ff" d="M 29.917969 14.855469 C 29.917969 6.671875 23.238281 0.0390625 15 0.0390625 C 6.761719 0.0390625 0.0820312 6.671875 0.0820312 14.855469 C 0.0820312 15 0.101562 15.144531 0.101562 15.289062 C 0.101562 15.292969 0.09375 15.292969 0.09375 15.292969 C 0.09375 15.625 0.117188 15.96875 0.15625 16.324219 C 0.164062 16.390625 0.171875 16.453125 0.175781 16.519531 C 0.214844 16.824219 0.265625 17.136719 0.324219 17.457031 C 0.363281 17.683594 0.402344 17.90625 0.457031 18.121094 C 2.734375 28.164062 14.996094 45.464844 14.996094 45.464844 C 14.996094 45.464844 26.007812 29.625 29.109375 19.636719 C 29.355469 18.914062 29.546875 18.167969 29.679688 17.402344 C 29.824219 16.640625 29.917969 15.933594 29.917969 15.292969 C 29.917969 15.246094 29.898438 15.203125 29.898438 15.15625 C 29.902344 15.054688 29.917969 14.957031 29.917969 14.855469 Z M 15 22.585938 C 10.636719 22.585938 7.101562 19.074219 7.101562 14.746094 C 7.101562 10.414062 10.632812 6.902344 15 6.902344 C 19.359375 6.902344 22.898438 10.414062 22.898438 14.746094 C 22.898438 19.074219 19.359375 22.585938 15 22.585938 Z M 15 22.585938 " fill-opacity="1" fill-rule="nonzero"/></g><g clip-path="url(#a8c62357f2)"><path fill="#ffffff" d="M 14.875 6.761719 C 10.550781 6.761719 7.042969 10.269531 7.042969 14.59375 C 7.042969 18.921875 10.550781 22.425781 14.875 22.425781 C 19.203125 22.425781 22.707031 18.921875 22.707031 14.59375 C 22.707031 10.269531 19.203125 6.761719 14.875 6.761719 " fill-opacity="1" fill-rule="nonzero"/></g><g fill="#b356ff" fill-opacity="1"><text x="49%" y="15.5" dominant-baseline="middle" text-anchor="middle" font-size="13px">15</text></g></svg>