<svg xmlns="http://www.w3.org/2000/svg" viewBox="0 0 29.4 29.4" fill="url(#instagram)">
<defs>
  <linearGradient id="instagram" x1="0" x2="0" y1="0" y2="1">
    <stop offset="0%" stop-color="#833ab4" />
    <stop offset="50%" stop-color="#fd1d1d" />
    <stop offset="100%" stop-color="#fcb045" />
  </linearGradient></defs>
<path d="M20.92,0H8.48C3.8,0,0,3.8,0,8.48h0v12.43c0,4.68,3.79,8.48,8.48,8.49h12.44c4.69,0,8.48-3.8,8.48-8.48h0V8.48C29.4,3.8,25.6,0,20.92,0h0m5.78,21.13c0,3.11-2.52,5.63-5.63,5.64H8.34c-3.11,0-5.64-2.52-5.64-5.64h0V8.41c0-3.11,2.53-5.64,5.64-5.63h12.72c3.11,0,5.63,2.52,5.63,5.63v12.72Z"/><path d="M14.7,7c-4.21,0-7.63,3.42-7.62,7.63s3.42,7.63,7.63,7.62c4.21,0,7.62-3.42,7.62-7.63,0-4.21-3.41-7.63-7.62-7.63h0m0,12.57c-2.73,0-4.95-2.21-4.95-4.95,0-2.73,2.21-4.95,4.95-4.95,2.73,0,4.95,2.21,4.95,4.95h0c0,2.73-2.21,4.95-4.94,4.95h0"/><path d="M22.58,5.22c-.98,0-1.78,.8-1.78,1.78,0,.98,.8,1.78,1.78,1.78,.98,0,1.78-.8,1.78-1.78,0-.98-.8-1.78-1.78-1.78"/>
</svg>