<?xml version="1.0" encoding="UTF-8"?><svg xmlns="http://www.w3.org/2000/svg" viewBox="0 0 13.45 13.25"><defs><style>.e{fill:#f08518;}</style></defs><g id="a"/><g id="b"><g id="c"><path id="d" class="e" d="M7.06,.23l1.6,3.99c.05,.13,.17,.21,.3,.23l4.17,.34c.2,.03,.35,.21,.32,.41-.01,.09-.05,.17-.12,.23l-3.16,2.81c-.1,.09-.15,.23-.11,.36l.97,4.2c.05,.19-.06,.39-.25,.44-.09,.03-.19,.01-.28-.04l-3.57-2.25c-.11-.07-.26-.07-.37,0l-3.57,2.25c-.17,.1-.39,.05-.49-.12-.05-.08-.06-.18-.04-.28l.97-4.2c.03-.13-.01-.27-.11-.36L.13,5.43c-.15-.14-.17-.37-.03-.52,.06-.07,.14-.11,.23-.12l4.17-.34c.13-.01,.25-.1,.3-.23L6.4,.23c.07-.18,.27-.27,.45-.2,.09,.04,.17,.11,.2,.2"/></g></g></svg>