<?xml version="1.0" encoding="utf-8"?>
<!-- Generator: Adobe Illustrator 25.4.1, SVG Export Plug-In . SVG Version: 6.00 Build 0)  -->
<svg version="1.1" xmlns="http://www.w3.org/2000/svg" xmlns:xlink="http://www.w3.org/1999/xlink" x="0px" y="0px"
	 viewBox="0 0 96 96" style="enable-background:new 0 0 96 96;" xml:space="preserve">
<style type="text/css">
	.st0{fill:#FaFaFa;}
	.st1{fill:#262626;}
</style>
<g id="배경">
	<g>
		<rect class="st0" width="96" height="96"/>
	</g>
</g>
<g id="레이어_2">
	<path class="st1" d="M65,49.5H31c-0.6,0-1-0.4-1-1v-1c0-0.6,0.4-1,1-1h34c0.6,0,1,0.4,1,1v1C66,49.1,65.6,49.5,65,49.5z"/>
	<path class="st1" d="M49.5,31v34c0,0.6-0.4,1-1,1h-1c-0.6,0-1-0.4-1-1V31c0-0.6,0.4-1,1-1h1C49.1,30,49.5,30.4,49.5,31z"/>
</g>
</svg>
