<svg xmlns="http://www.w3.org/2000/svg" version="1.1" width="400" height="325" viewBox="5 13.5 90 73">
<g fill="#BB84E8" data-fill-palette-color="accent"><path fill="#BB84E8" d="M23.81 76.102c-2.362 2.361-2.362 6.192 0 8.556 2.362 2.362 6.193 2.362 8.556 0 2.361-2.363 2.361-6.194 0-8.556C30.003 73.739 26.172 73.739 23.81 76.102zM94.226 14.432l-0.086-0.085c-1.157-1.158-3.192-1-4.544 0.352L66.65 37.643 51.499 22.492 8.754 65.237 6.787 63.27l42.745-42.746c-2.363-2.348-6.183-2.343-8.541 0.015L6.771 54.757c-2.362 2.363-2.362 6.195 0 8.558L20.41 76.951c0.407-0.912 0.983-1.769 1.732-2.517 3.284-3.284 8.608-3.284 11.891 0 0.776 0.774 1.366 1.667 1.775 2.616l35.124-35.125-0.006-0.004 22.945-22.945C95.226 17.623 95.383 15.589 94.226 14.432z" data-fill-palette-color="accent"></path></g>
</svg>