<svg xmlns="http://www.w3.org/2000/svg" viewBox="0 0 93.6 93.6"><defs><style>.cls-1{fill:#333;}.cls-2{fill:#fff;}</style></defs><g id="레이어_2" data-name="레이어 2"><g id="레이어_1-2" data-name="레이어 1"><path class="cls-1" d="M46.8,0A46.8,46.8,0,1,0,93.6,46.8,46.86,46.86,0,0,0,46.8,0Zm0,90.6A43.65,43.65,0,0,1,16.91,78.81L27.42,68.3H24.8a7.19,7.19,0,0,1-1.47-.15l-8.54,8.54A43.78,43.78,0,0,1,76.67,14.81L66.18,25.3H68.8a7.12,7.12,0,0,1,1.47.15l8.52-8.52a43.77,43.77,0,0,1-32,73.67Z"/><path class="cls-1" d="M69.3,40.8v20a.47.47,0,0,1-.5.5h-44a.47.47,0,0,1-.5-.5v-20l-3-2.25V60.8a3.54,3.54,0,0,0,3.5,3.5h44a3.54,3.54,0,0,0,3.5-3.5V38.55Z"/><path class="cls-1" d="M68.8,29.3h-44a3.54,3.54,0,0,0-3.5,3.5,1.43,1.43,0,0,0,.6,1.2l2.4,1.8,2,1.5,2,1.5L42.23,49.25l2.43,1.82L45.9,52a1.5,1.5,0,0,0,1.8,0L65.3,38.8l2-1.5,2-1.5L71.7,34a1.43,1.43,0,0,0,.6-1.2A3.54,3.54,0,0,0,68.8,29.3Zm.08,3-2.64,2-2.67,2L46.89,48.83l-.09.07-2.41-1.81L30,36.3l-2.67-2-2.64-2H68.88Z"/><path class="cls-2" d="M24.7,32.3h0Z"/><path class="cls-2" d="M68.9,32.3h0Z"/></g></g></svg>